<svg width="15" height="11" viewBox="0 0 15 11" fill="none" xmlns="http://www.w3.org/2000/svg">
<mask id="mask0_1_13" style="mask-type:luminance" maskUnits="userSpaceOnUse" x="-5" y="-6" width="25" height="22">
<path d="M19.4803 -5.42379H-4.15224V15.2768H19.4803V-5.42379Z" fill="white"/>
</mask>
<g mask="url(#mask0_1_13)">
<path d="M15 5.36314C15 5.18389 14.9192 5.02588 14.7576 4.88909L9.40228 0.212263C9.31614 0.136789 9.22728 0.0825436 9.1357 0.0495262C9.04956 0.0165088 8.95799 0 8.86109 0C8.66175 0 8.49491 0.0589659 8.3602 0.176887C8.22561 0.290087 8.15826 0.433956 8.15826 0.608482C8.15826 0.693386 8.17445 0.775929 8.20683 0.856123C8.23908 0.931587 8.28753 0.997632 8.35217 1.05423L10.1616 2.66742L13.3683 5.22871L13.5298 4.87494L10.9289 4.73343H0.710832C0.500809 4.73343 0.328492 4.79239 0.19387 4.91031C0.0646233 5.02824 0 5.17918 0 5.36314C0 5.54706 0.0646233 5.69807 0.19387 5.81596C0.328492 5.93385 0.500809 5.99285 0.710832 5.99285H10.9289L13.5298 5.85136L13.3683 5.50463L10.1616 8.05887L8.35217 9.67206C8.28753 9.72868 8.23908 9.79709 8.20683 9.8772C8.17445 9.95266 8.15826 10.0329 8.15826 10.1178C8.15826 10.2924 8.22561 10.4362 8.3602 10.5494C8.49491 10.6673 8.66175 10.7262 8.86109 10.7262C9.05488 10.7262 9.22988 10.6602 9.38609 10.5281L14.7576 5.83718C14.9192 5.70035 15 5.54241 15 5.36314Z" fill="white"/>
</g>
</svg>
