<svg width="20" height="20" viewBox="0 0 20 20" fill="none" xmlns="http://www.w3.org/2000/svg">
<g clip-path="url(#clip0_1_403)">
<path d="M9.42569 16.5324C8.05613 16.5332 6.71711 16.1392 5.57812 15.4001C4.43911 14.661 3.55132 13.6102 3.02711 12.3807C2.50289 11.1511 2.36581 9.79804 2.63322 8.49274C2.90063 7.18743 3.56051 5.98856 4.52933 5.04785C5.82792 3.78589 7.5892 3.07693 9.42569 3.07693C11.2622 3.07693 13.0234 3.78589 14.3221 5.04785C15.6206 6.3098 16.3502 8.02138 16.3502 9.80606C16.3502 11.5907 15.6206 13.3023 14.3221 14.5643C13.6804 15.1907 12.9172 15.6872 12.0767 16.0249C11.2363 16.3628 10.3352 16.5353 9.42569 16.5324ZM3.88839 9.92176C3.90412 11.3438 4.4985 12.702 5.5416 13.6995C6.58471 14.697 7.99172 15.2526 9.45513 15.2449C10.9185 15.2373 12.3193 14.667 13.3513 13.6587C14.3833 12.6504 14.9627 11.2861 14.9627 9.86392C14.9627 8.44178 14.3833 7.07746 13.3513 6.06916C12.3193 5.06086 10.9185 4.49056 9.45513 4.48292C7.99172 4.47527 6.58471 5.0309 5.5416 6.02837C4.4985 7.02582 3.90412 8.384 3.88839 9.80606V9.92176ZM7.6323 12.4966L6.65635 11.5482L8.44974 9.80606L6.65704 8.06394L7.63299 7.11553L9.42569 8.85766L11.2184 7.11553L12.1943 8.06394L10.4016 9.80606L12.1943 11.5482L11.2198 12.4966L9.42569 10.7545L7.6323 12.4966Z" fill="#565656"/>
</g>
<defs>
<clipPath id="clip0_1_403">
<rect width="15" height="13.8462" fill="white" transform="translate(2.5 3.07693)"/>
</clipPath>
</defs>
</svg>
